# xmcd
#
# Track frame offsets:
#	150
#	15968
#	37352
#	61912
#	87721
#	101529
#	117851
#	139310
#	154561
#	167886
#	187508
#	207729
#	237102
#	258265
#	280849
#
# Disc length: 3920 seconds
#
# Revision: 1
# Processed by: cddbd v1.5.2PL0 Copyright (c) Steve Scherf et al.
# Submitted via: audiograbber 1.83.01
#
DISCID=cc0f4e0f
DTITLE=Alison Krauss - A Hundred Miles Or More
DYEAR=1900
DGENRE=
TTITLE0=You're Just A Country Boy
TTITLE1=Simple Love
TTITLE2=Jacob's Dream
TTITLE3=Away Down The River
TTITLE4=Sawing On The Strings
TTITLE5=Baby Mine
TTITLE6=Molly Ban (Bawn)
TTITLE7=How's The World Treating You
TTITLE8=The Scarlet Tide
TTITLE9=Whiskey Lullaby
TTITLE10=I Give You To His Heart
TTITLE11=Get Me Through December
TTITLE12=Missing You
TTITLE13=Lay Down Beside Me
TTITLE14=Down To The River To Pray
EXTD=
EXTT0=
EXTT1=
EXTT2=
EXTT3=
EXTT4=
EXTT5=
EXTT6=
EXTT7=
EXTT8=
EXTT9=
EXTT10=
EXTT11=
EXTT12=
EXTT13=
EXTT14=
PLAYORDER=
